<svg width="31" height="29" viewBox="0 0 31 29" fill="none" xmlns="http://www.w3.org/2000/svg">
<path d="M26.0555 1.4565C25.7882 1.01328 25.4112 0.646425 24.9609 0.391307C24.5105 0.136189 24.0021 0.00141994 23.4845 0H7.1825C6.1355 0 5.15 0.558 4.6115 1.4565L0.547997 8.2275C0.40738 8.46062 0.333204 8.72776 0.333497 9C0.339488 10.4478 0.872738 11.8439 1.8335 12.927V25.5C1.8335 27.1545 3.179 28.5 4.8335 28.5H25.8335C27.488 28.5 28.8335 27.1545 28.8335 25.5V12.927C29.7943 11.8439 30.3275 10.4478 30.3335 9C30.3338 8.72776 30.2596 8.46062 30.119 8.2275L26.0555 1.4565ZM27.3095 9.3765C27.2169 10.1007 26.8638 10.7665 26.3161 11.2493C25.7684 11.7321 25.0636 11.999 24.3335 12C22.679 12 21.3335 10.6545 21.3335 9C21.3335 8.898 21.296 8.808 21.275 8.712L21.305 8.706L20.1635 3H23.4845L27.3095 9.3765V9.3765ZM13.562 3H17.1035L18.323 9.0975C18.2705 10.7055 16.9535 12 15.3335 12C13.7135 12 12.3965 10.7055 12.344 9.0975L13.562 3ZM7.1825 3H10.5035L9.3635 8.706L9.3935 8.712C9.371 8.808 9.3335 8.898 9.3335 9C9.3335 10.6545 7.988 12 6.3335 12C5.60337 11.999 4.89861 11.7321 4.35091 11.2493C3.80322 10.7665 3.45008 10.1007 3.3575 9.3765L7.1825 3ZM12.3335 25.5V21H18.3335V25.5H12.3335ZM21.3335 25.5V21C21.3335 19.3455 19.988 18 18.3335 18H12.3335C10.679 18 9.3335 19.3455 9.3335 21V25.5H4.8335V14.787C5.315 14.9115 5.8115 15 6.3335 15C7.18522 15.0004 8.02723 14.8191 8.80325 14.4681C9.57928 14.1171 10.2714 13.6044 10.8335 12.9645C11.933 14.2125 13.544 15 15.3335 15C17.123 15 18.734 14.2125 19.8335 12.9645C20.3955 13.6044 21.0877 14.1171 21.8637 14.4681C22.6398 14.8191 23.4818 15.0004 24.3335 15C24.8555 15 25.352 14.9115 25.8335 14.787V25.5H21.3335Z" fill="white"/>
</svg>
