<svg width="35" height="39" viewBox="0 0 35 39" fill="none" xmlns="http://www.w3.org/2000/svg">
<path d="M31.0569 4.5H29.162V2.625C29.162 1.59375 28.3093 0.75 27.267 0.75C26.2248 0.75 25.3721 1.59375 25.3721 2.625V4.5H10.2125V2.625C10.2125 1.59375 9.3598 0.75 8.31758 0.75C7.27536 0.75 6.42263 1.59375 6.42263 2.625V4.5H4.52769C2.4243 4.5 0.756742 6.1875 0.756742 8.25L0.737793 34.5C0.737793 35.4946 1.13708 36.4484 1.84783 37.1516C2.55857 37.8549 3.52254 38.25 4.52769 38.25H31.0569C33.1414 38.25 34.8468 36.5625 34.8468 34.5V8.25C34.8468 6.1875 33.1414 4.5 31.0569 4.5ZM31.0569 32.625C31.0569 33.6562 30.2042 34.5 29.162 34.5H6.42263C5.38041 34.5 4.52769 33.6562 4.52769 32.625V13.875H31.0569V32.625ZM8.31758 17.625H12.1075V21.375H8.31758V17.625ZM15.8974 17.625H19.6873V21.375H15.8974V17.625ZM23.4772 17.625H27.267V21.375H23.4772V17.625Z" fill="white"/>
</svg>
