<svg width="31" height="26" viewBox="0 0 31 26" fill="none" xmlns="http://www.w3.org/2000/svg">
<path d="M27.5505 7.90498L29.895 5.56048L27.774 3.43948L25.212 5.99998C23.637 5.05498 21.801 4.49998 19.833 4.49998C14.0445 4.49998 9.33301 9.20998 9.33301 15C9.33301 20.79 14.0445 25.5 19.833 25.5C25.6215 25.5 30.333 20.79 30.333 15C30.3318 12.369 29.3382 9.83534 27.5505 7.90498ZM19.833 22.5C15.6975 22.5 12.333 19.1355 12.333 15C12.333 10.8645 15.6975 7.49998 19.833 7.49998C23.9685 7.49998 27.333 10.8645 27.333 15C27.333 19.1355 23.9685 22.5 19.833 22.5Z" fill="white"/>
<path d="M18.333 10.5H21.333V16.5H18.333V10.5ZM16.833 0H22.833V3H16.833V0ZM1.83301 7.5H7.83301V10.5H1.83301V7.5ZM1.83301 19.5H7.83301V22.5H1.83301V19.5ZM0.333008 13.5H6.31801V16.5H0.333008V13.5Z" fill="white"/>
</svg>
