<svg width="29" height="29" viewBox="0 0 29 29" fill="none" xmlns="http://www.w3.org/2000/svg">
<path d="M2.12513 17.25H4.87513V26.875C4.87513 27.2397 5.01999 27.5894 5.27786 27.8473C5.53572 28.1051 5.88546 28.25 6.25013 28.25H22.7501C23.1148 28.25 23.4645 28.1051 23.7224 27.8473C23.9803 27.5894 24.1251 27.2397 24.1251 26.875V17.25H26.8751C27.1409 17.2502 27.4009 17.1733 27.6238 17.0286C27.8466 16.8838 28.0227 16.6775 28.1305 16.4346C28.2391 16.1919 28.2748 15.9228 28.2333 15.6602C28.1918 15.3975 28.0749 15.1526 27.8968 14.9551L15.5218 1.20513C15.0006 0.624881 13.9996 0.624881 13.4785 1.20513L1.1035 14.9551C0.925703 15.1527 0.808962 15.3975 0.767403 15.66C0.725845 15.9225 0.761252 16.1914 0.86934 16.4342C0.977427 16.677 1.15356 16.8833 1.37643 17.0281C1.5993 17.1728 1.85936 17.2499 2.12513 17.25ZM9.898 14.0064C10.4703 13.4413 11.2422 13.1245 12.0464 13.1245C12.8507 13.1245 13.6226 13.4413 14.1949 14.0064L14.5029 14.3089L14.8095 14.0064C15.3821 13.4413 16.1542 13.1244 16.9586 13.1244C17.7631 13.1244 18.5352 13.4413 19.1077 14.0064C19.3918 14.2796 19.6178 14.6074 19.7721 14.9701C19.9265 15.3328 20.006 15.7229 20.006 16.117C20.006 16.5112 19.9265 16.9012 19.7721 17.2639C19.6178 17.6266 19.3918 17.9544 19.1077 18.2276L14.5029 22.75L9.898 18.2276C9.61396 17.9544 9.38799 17.6266 9.23364 17.2639C9.07929 16.9012 8.99973 16.5112 8.99973 16.117C8.99973 15.7229 9.07929 15.3328 9.23364 14.9701C9.38799 14.6074 9.61396 14.2796 9.898 14.0064Z" fill="white"/>
</svg>
