<svg width="23" height="14" viewBox="0 0 23 14" fill="none" xmlns="http://www.w3.org/2000/svg">
<path fill-rule="evenodd" clip-rule="evenodd" d="M22.5 12.5578C22.5 12.3154 22.4012 12.0829 22.2254 11.9115C22.0496 11.7401 21.8111 11.6438 21.5625 11.6438H15.9375C15.6889 11.6438 15.4504 11.7401 15.2746 11.9115C15.0988 12.0829 15 12.3154 15 12.5578C15 12.8002 15.0988 13.0327 15.2746 13.2042C15.4504 13.3756 15.6889 13.4719 15.9375 13.4719H21.5625C21.8111 13.4719 22.0496 13.3756 22.2254 13.2042C22.4012 13.0327 22.5 12.8002 22.5 12.5578ZM22.5 7.07344C22.5 6.83102 22.4012 6.59852 22.2254 6.4271C22.0496 6.25568 21.8111 6.15938 21.5625 6.15938H8.4375C8.18886 6.15938 7.9504 6.25568 7.77459 6.4271C7.59877 6.59852 7.5 6.83102 7.5 7.07344C7.5 7.31587 7.59877 7.54836 7.77459 7.71978C7.9504 7.8912 8.18886 7.9875 8.4375 7.9875H21.5625C21.8111 7.9875 22.0496 7.8912 22.2254 7.71978C22.4012 7.54836 22.5 7.31587 22.5 7.07344ZM22.5 1.58907C22.5 1.34664 22.4012 1.11415 22.2254 0.942726C22.0496 0.771306 21.8111 0.675003 21.5625 0.675003H0.9375C0.68886 0.675003 0.450403 0.771306 0.274588 0.942726C0.0987722 1.11415 0 1.34664 0 1.58907C0 1.83149 0.0987722 2.06399 0.274588 2.23541C0.450403 2.40683 0.68886 2.50313 0.9375 2.50313H21.5625C21.8111 2.50313 22.0496 2.40683 22.2254 2.23541C22.4012 2.06399 22.5 1.83149 22.5 1.58907Z" fill="white"/>
</svg>
