<svg width="65" height="75" viewBox="0 0 65 75" fill="none" xmlns="http://www.w3.org/2000/svg">
<path d="M21.717 28.2154C25.5033 27.5719 28.3114 24.1236 28.7387 20.0042C29.1726 15.8149 30.1509 -1.02038 23.8312 0.0505089C7.43794 2.83092 8.58845 30.4417 21.717 28.2154ZM43.286 28.2154C56.4113 30.4417 57.5618 2.83092 41.1685 0.048884C34.8505 -1.02201 35.8271 15.8132 36.2594 20.0025C36.6884 24.1236 39.4996 27.5719 43.286 28.2154ZM14.9829 41.2237C14.9829 39.0332 14.2013 37.0474 12.9419 35.6028C10.87 32.8955 4.28377 27.4208 2.66687 28.8232C-0.708303 31.758 -0.599426 38.9812 1.43348 44.23C2.47837 47.1486 5.00203 49.201 7.95145 49.201C11.8336 49.201 14.9829 45.6292 14.9829 41.2237ZM62.3312 28.8232C60.7176 27.4208 54.1314 32.8955 52.0595 35.6028C50.8001 37.0474 50.0168 39.0332 50.0168 41.2237C50.0168 45.6292 53.1693 49.201 57.0483 49.201C59.9993 49.201 62.5246 47.1486 63.5695 44.23C65.5975 38.9812 65.7097 31.758 62.3312 28.8232ZM49.11 53.6487C43.1365 50.67 43.3217 44.9337 41.9632 39.6995C40.8825 35.5248 37.0556 32.4372 32.5007 32.4372C30.3879 32.4316 28.3303 33.1116 26.6369 34.3751C24.9435 35.6386 23.7058 37.4174 23.1097 39.4443C21.6553 44.4526 22.5312 50.2832 16.0197 53.6097C10.7302 55.3338 8.58846 57.8493 8.58846 63.7985C8.58846 68.6314 12.7371 73.8054 18.0916 74.449C24.0652 75.3492 28.7257 74.1727 32.5007 72.0212C36.2756 74.1727 40.9329 75.3476 46.9163 74.449C52.2675 73.8054 56.4178 68.6509 56.4178 63.7985C56.4161 57.7193 54.4109 55.4541 49.11 53.6487ZM42.0623 60.919H35.8693L35.8775 67.4191H29.1239L29.1336 60.919H22.562V54.4189H29.1353L29.1255 47.9188H35.8791L35.871 54.4189H42.0623V60.919Z" fill="#286EAE"/>
</svg>
