<svg width="30" height="30" viewBox="0 0 30 30" fill="none" xmlns="http://www.w3.org/2000/svg">
<path d="M30 3.33333C30 1.495 28.505 0 26.6667 0H3.33333C1.495 0 0 1.495 0 3.33333V26.6667C0 28.505 1.495 30 3.33333 30H26.6667C28.505 30 30 28.505 30 26.6667V3.33333ZM3.33333 26.6667V3.33333H26.6667L26.67 26.6667H3.33333Z" fill="white"/>
<path d="M6.66699 6.66669H9.99699V10H6.66699V6.66669ZM13.3337 6.66669H23.3337V10H13.3337V6.66669ZM6.66699 13.3334H9.99699V16.6667H6.66699V13.3334ZM13.3337 13.3334H23.3337V16.6667H13.3337V13.3334ZM6.66699 20H9.99699V23.3334H6.66699V20ZM13.3337 20H23.3337V23.3334H13.3337V20Z" fill="white"/>
</svg>
