<svg width="15" height="13" viewBox="0 0 15 13" fill="none" xmlns="http://www.w3.org/2000/svg">
<path fill-rule="evenodd" clip-rule="evenodd" d="M14.8493 6.493L13.3777 4.89325C13.2803 4.79728 13.149 4.74348 13.0122 4.74348C12.8754 4.74348 12.7441 4.79728 12.6466 4.89325L11.1731 6.493C11.125 6.54057 11.0869 6.59721 11.0608 6.65963C11.0348 6.72205 11.0214 6.78902 11.0214 6.85666C11.0214 6.9243 11.0348 6.99127 11.0608 7.05369C11.0869 7.11612 11.125 7.17275 11.1731 7.22033H12.3923C12.1642 8.07706 11.714 8.85841 11.0872 9.48539C10.4604 10.1124 9.67917 10.5628 8.8225 10.791C7.82136 11.0529 6.76403 11.002 5.7927 10.6451C4.82137 10.2882 3.9826 9.64242 3.3892 8.79463L2.36133 9.50218C3.10176 10.56 4.1484 11.3657 5.36046 11.8109C6.57251 12.2561 7.89184 12.3194 9.14094 11.9922C10.2643 11.6944 11.283 11.0906 12.0836 10.2481C12.8842 9.4056 13.4353 8.35745 13.6754 7.22033H14.8484C14.8964 7.17275 14.9346 7.11614 14.9606 7.05376C14.9867 6.99138 15.0002 6.92446 15.0002 6.85686C15.0003 6.78925 14.987 6.7223 14.9611 6.65985C14.9352 6.5974 14.8972 6.5407 14.8493 6.493Z" fill="black" fill-opacity="0.75"/>
<path fill-rule="evenodd" clip-rule="evenodd" d="M4.18317 5.65732C4.23126 5.60975 4.26943 5.55311 4.29548 5.49069C4.32153 5.42827 4.33494 5.3613 4.33494 5.29366C4.33494 5.22602 4.32153 5.15905 4.29548 5.09662C4.26943 5.0342 4.23126 4.97756 4.18317 4.92999H2.81048C3.04401 4.08407 3.49479 3.31396 4.11804 2.69617C4.74129 2.07837 5.51533 1.63437 6.36327 1.40829C7.36445 1.14611 8.42193 1.1971 9.39324 1.55439C10.3645 1.91168 11.203 2.5581 11.7956 3.40656L12.8244 2.69807C12.0838 1.63966 11.0368 0.833466 9.8242 0.387955C8.61164 -0.0575557 7.29172 -0.121013 6.04201 0.206121C4.92727 0.502621 3.91565 1.10022 3.11798 1.93345C2.32032 2.76668 1.76738 3.80339 1.51975 4.92999H0.151771C0.103688 4.97756 0.0655164 5.0342 0.0394651 5.09662C0.0134137 5.15905 0 5.22602 0 5.29366C0 5.3613 0.0134137 5.42827 0.0394651 5.49069C0.0655164 5.55311 0.103688 5.60975 0.151771 5.65732L1.69499 7.1996C1.79246 7.29557 1.92375 7.34936 2.06054 7.34936C2.19732 7.34936 2.32862 7.29557 2.42609 7.1996L4.18317 5.65732Z" fill="black" fill-opacity="0.75"/>
</svg>
